<?xml version="1.0" standalone="no"?>
<!DOCTYPE svg PUBLIC "-//W3C//DTD SVG 20010904//EN"
 "http://www.w3.org/TR/2001/REC-SVG-20010904/DTD/svg10.dtd">
<svg version="1.0" xmlns="http://www.w3.org/2000/svg"
 width="32.000000pt" height="32.000000pt" viewBox="0 0 32.000000 32.000000"
 preserveAspectRatio="xMidYMid meet">
<metadata>
Created by potrace 1.10, written by Peter Selinger 2001-2011
</metadata>
<g transform="translate(0.000000,32.000000) scale(0.100000,-0.100000)"
fill="#000000" stroke="none">
<path d="M123 313 c-18 -2 -39 -13 -47 -25 -8 -11 -19 -17 -24 -14 -6 3 -12
-1 -15 -8 -4 -9 1 -16 10 -18 12 -2 9 -10 -13 -33 -16 -16 -30 -41 -32 -54 -3
-23 -3 -23 20 4 38 43 66 18 69 -60 1 -34 30 -90 46 -90 6 0 15 -3 19 -7 11
-12 56 -10 49 2 -4 6 -9 8 -13 6 -4 -2 -8 11 -9 29 -3 29 0 33 27 37 36 5 50
-7 50 -44 0 -19 -4 -26 -14 -22 -8 3 -17 1 -21 -5 -9 -15 28 -14 43 1 7 7 12
21 12 31 0 13 5 17 15 13 27 -10 16 12 -14 30 -17 10 -28 21 -25 26 3 4 -3 8
-13 8 -11 0 -24 5 -30 11 -8 8 -13 8 -17 0 -4 -6 0 -11 9 -11 9 0 13 -5 10
-10 -4 -6 -14 -9 -22 -8 -11 2 -20 -9 -26 -32 -8 -26 -11 -30 -15 -16 -2 11
-15 31 -28 45 -17 18 -24 38 -24 64 0 23 -4 36 -10 32 -5 -3 -14 -4 -19 0 -9
5 35 94 47 96 68 8 100 5 132 -14 38 -22 70 -18 70 8 0 9 -9 14 -22 14 -13 -1
-43 3 -68 9 -46 12 -50 12 -107 5z"/>
<path d="M280 195 c0 -19 5 -37 10 -40 6 -4 9 -14 8 -22 -2 -9 3 -18 10 -20 9
-3 12 11 12 50 0 46 -3 55 -20 60 -17 4 -20 0 -20 -28z"/>
<path d="M145 200 c-4 -7 3 -9 22 -5 l28 5 -30 -14 c-16 -9 -28 -16 -25 -16
42 -11 60 -9 69 8 6 11 7 22 4 26 -10 10 -61 7 -68 -4z"/>
<path d="M237 203 c-3 -5 -2 -16 2 -25 4 -13 10 -15 21 -8 12 8 12 10 1 10
-11 0 -11 3 -1 15 10 12 10 15 -3 15 -9 0 -18 -3 -20 -7z"/>
<path d="M4 106 c-7 -19 27 -60 37 -44 5 7 11 9 15 5 4 -4 2 -13 -4 -19 -18
-18 -14 -32 5 -17 15 12 16 12 10 -3 -3 -10 -1 -20 5 -24 16 -10 -1 75 -20 97
-19 22 -40 25 -48 5z"/>
</g>
</svg>
